# xmcd CD database file
#
# Track frame offsets:
#	150
#	15157
#	32864
#	50721
#	66028
#	79385
#	95893
#	114201
#	131008
#	146765
#	163572
#	182029
#
# Disc length: 2665 seconds
#
# Revision: 2
# Processed by: cddbd v1.5.1PL0 Copyright (c) Steve Scherf et al.
# Submitted via: CDex 1.40Beta6
#
DISCID=a30a670c
DTITLE=LeAnn Rimes - This Woman
DYEAR=2004
DGENRE=Country
TTITLE0=I Want To With You
TTITLE1=You Take Me Home
TTITLE2=Something's Gotta Give
TTITLE3=Won't Be Lonely Long
TTITLE4=Nothin' 'Bout Love Makes Sense
TTITLE5=Probably Wouldn't Be This Way
TTITLE6=The Weight Of Love
TTITLE7=With You
TTITLE8=I Got It Bad
TTITLE9=I Dare You
TTITLE10=When This Woman Loves A Man
TTITLE11=Some People
EXTD=
EXTT0=
EXTT1=
EXTT2=
EXTT3=
EXTT4=
EXTT5=
EXTT6=
EXTT7=
EXTT8=
EXTT9=
EXTT10=
EXTT11=
PLAYORDER=
